# xmcd CD database file
# Copyright (C) 1993-1998 Ti Kan
# 
# Track frame offsets:
#     187
#     16637
#     25017
#     38325
#     54590
#     67772
#     77530
#     87077
#     98277
#     110135
#     119797
#     129037
#     137467
#     146557
#     162157
#     173187
#     184975
#     195175
#     207470
#     220927
#     231625
#     242657
#     252617
#     266225
#     280630
# 
# Disc length: 3943 seconds
# 
# Revision: 1
# Processed by: cddbd v1.4b41PL1 Copyright (c) Steve Scherf et al.
# Submitted via: DiscPlay 4.0.4
# 
DISCID=530f6519
DTITLE=Boxcar Willie - Just Train Songs
DYEAR=1900
DGENRE=
TTITLE0=Train Medley
TTITLE1=Lonesome Hobo
TTITLE2=From a Rolls to the Rails
TTITLE3=From a Boxcar Door
TTITLE4=I Love the Sound of a Whistle
TTITLE5=Golden Rocket
TTITLE6=I'm Movin On
TTITLE7=Wreck of the Old '97
TTITLE8=Pan American
TTITLE9=Waitin' For a Train
TTITLE10=Hobo Bill's Last Ride
TTITLE11=Daddy Was a Railroad Man
TTITLE12=Hank and the Hobo
TTITLE13=Wabash Cannonball
TTITLE14=Freight Train Blues
TTITLE15=The Old Iron Rail
TTITLE16=Bummin' Around
TTITLE17=Lonesome Joe
TTITLE18=Ramblin Man
TTITLE19=Rock Island Line
TTITLE20=Last Train to Heaven
TTITLE21=King of the Road
TTITLE22=Lonesome Whistle
TTITLE23=Walkin' Holes in my Shoes
TTITLE24=Boxcar Blues
EXTD=
EXTT0=
EXTT1=
EXTT2=
EXTT3=
EXTT4=
EXTT5=
EXTT6=
EXTT7=
EXTT8=
EXTT9=
EXTT10=
EXTT11=
EXTT12=
EXTT13=
EXTT14=
EXTT15=
EXTT16=
EXTT17=
EXTT18=
EXTT19=
EXTT20=
EXTT21=
EXTT22=
EXTT23=
EXTT24=
PLAYORDER=
